<svg id="Layer_1" xmlns="http://www.w3.org/2000/svg" viewBox="0 0 173.7 47"><style>.st0{fill:#005E91;} .st1{fill:#003459;} .st2{fill:#FFFFFF;} .st3{fill:#F1C40F;} .st4{fill:#BC4D1E;} .st5{fill:#FC611F;} .st6{fill:#DF5B23;}</style><path class="st0" d="M24.6 26.3c1.1 1.4.9 3.5-.6 4.6-1.4 1.1-3.5.9-4.6-.6-1.1-1.4-6.7-11.1-5.3-12.2s9.4 6.8 10.5 8.2z"/><circle class="st1" cx="22.1" cy="28.4" r="3.3"/><path class="st2" d="M22.1 25.6c1.6 0 2.8 1.3 2.8 2.8 0 1.6-1.3 2.8-2.8 2.8-1.6 0-2.8-1.3-2.8-2.8-.1-1.6 1.2-2.8 2.8-2.8m0-.6c-1.8 0-3.3 1.5-3.3 3.3 0 1.8 1.5 3.3 3.3 3.3 1.8 0 3.3-1.5 3.3-3.3 0-1.8-1.5-3.3-3.3-3.3z"/><path class="st2" d="M22.1 25.1c1.8 0 3.3 1.5 3.3 3.3 0 1.8-1.5 3.3-3.3 3.3-1.8 0-3.3-1.5-3.3-3.3 0-1.8 1.4-3.3 3.3-3.3m0-.1c-1.8 0-3.3 1.5-3.3 3.3 0 1.8 1.5 3.3 3.3 3.3 1.8 0 3.3-1.5 3.3-3.3 0-1.8-1.5-3.3-3.3-3.3z"/><path class="st3" d="M21.4 30.7c.8 1 3.9 1.9 3.9 1.9s-.2-3.3-.9-4.3c-.8-1-2.1-1.2-2.9-.6-.8.7-.8 2-.1 3z"/><path class="st0" d="M40.6 17c1.5.8 2 2.7 1.1 4.1-.8 1.5-2.7 2-4.1 1.1s-9.6-6.9-8.8-8.4 10.3 2.4 11.8 3.2z"/><circle class="st1" cx="39.1" cy="19.6" r="3"/><path class="st2" d="M39.1 17c1 0 2 .6 2.4 1.6.3.6.3 1.3 0 2-.3.6-.8 1.1-1.4 1.4-.3.1-.7.2-1 .2-1 0-2-.6-2.4-1.6-.3-.6-.3-1.3 0-2 .3-.6.8-1.1 1.4-1.4.4-.1.7-.2 1-.2m0-.4c-.4 0-.8.1-1.2.2-1.6.7-2.3 2.4-1.6 4 .5 1.2 1.6 1.9 2.8 1.9.4 0 .8-.1 1.2-.2 1.6-.7 2.3-2.4 1.6-4-.4-1.2-1.6-1.9-2.8-1.9z"/><path class="st2" d="M39.1 16.6c1.2 0 2.3.7 2.8 1.8.3.7.3 1.5 0 2.3-.3.7-.9 1.3-1.6 1.6-.4.2-.8.2-1.2.2-1.2 0-2.3-.7-2.8-1.8-.3-.7-.3-1.5 0-2.3.3-.7.9-1.3 1.6-1.6.4-.1.8-.2 1.2-.2m0 0c-.4 0-.8.1-1.2.2-1.6.7-2.3 2.4-1.6 4 .5 1.2 1.6 1.9 2.8 1.9.4 0 .8-.1 1.2-.2 1.6-.7 2.3-2.4 1.6-4-.4-1.2-1.6-1.9-2.8-1.9z"/><path class="st3" d="M39.4 21.8c1 .5 4 .2 4 .2s-1.3-2.7-2.3-3.3c-1-.5-2.2-.3-2.6.5-.5.9-.1 2 .9 2.6z"/><path class="st4" d="M28 21.3l1.1 7-5.9-5.4z"/><path class="st1" d="M50.9 24V4.3h7.3c.5 0 1 .1 1.6.1.6.1 1.1.1 1.5.3.4.1.8.3 1.2.5.4.2.8.4 1.1.7.3.3.5.6.8 1 .2.4.4.8.5 1.3.1.5.2 1.1.2 1.7 0 1.1-.2 2-.5 2.7-.3.7-.8 1.3-1.5 1.7s-1.5.7-2.4.9-2 .3-3.2.3h-3V24h-3.6zm3.5-11.4h3c.7 0 1.2 0 1.7-.1s.9-.2 1.3-.4.7-.5.9-.8c.2-.4.3-.8.3-1.3 0-.3 0-.6-.1-.8 0-.2-.1-.4-.2-.6-.1-.2-.2-.3-.3-.5-.2-.1-.3-.2-.4-.3-.1-.1-.3-.2-.6-.2-.3-.1-.5-.1-.6-.1-.2 0-.4-.1-.8-.1h-4v5.2zM72.6 24.4c-1.1 0-2.1-.2-3-.6-.9-.4-1.6-.9-2.2-1.6-.5-.7-1-1.4-1.2-2.3s-.4-1.7-.4-2.6c0-1 .1-1.9.4-2.8.3-.9.7-1.7 1.3-2.4.6-.7 1.3-1.3 2.2-1.7.9-.4 1.9-.6 3.1-.6 1.7 0 3 .6 3.9 1.8v-1.5H80V24h-3.4v-1.9c-1 1.5-2.3 2.3-4 2.3zm.5-2.8c1.3 0 2.2-.4 2.8-1.2.6-.8.9-1.9.9-3.3s-.3-2.5-.9-3.4c-.6-.8-1.6-1.2-2.9-1.2-1.2 0-2.2.4-2.9 1.2-.7.8-1 1.9-1 3.3s.3 2.5 1 3.3c.7.9 1.7 1.3 3 1.3zM84 29.4V14.8c0-.8-.1-2.4-.3-4.7h3.6v2c.1-.5.6-1 1.4-1.6.8-.5 1.8-.8 2.9-.8 1.2 0 2.3.3 3.2 1s1.6 1.5 2.1 2.6.7 2.2.7 3.5c0 .9-.1 1.9-.4 2.7-.3.9-.7 1.7-1.2 2.4s-1.2 1.3-2 1.7c-.8.4-1.7.6-2.7.6-1.1 0-2-.3-2.8-.8-.8-.5-1.2-1-1.3-1.5v7.3H84zm6.7-7.8c.6 0 1.2-.1 1.6-.4.5-.2.8-.6 1.1-1 .3-.4.5-.9.6-1.4.1-.5.2-1.1.2-1.7 0-.9-.1-1.6-.4-2.3-.2-.7-.6-1.2-1.2-1.6-.5-.4-1.2-.6-2-.6s-1.5.2-2 .6c-.5.4-.9 1-1.2 1.6-.2.7-.4 1.4-.4 2.3 0 .6.1 1.2.2 1.8.1.5.3 1 .6 1.5.3.4.6.8 1.1 1 .6.1 1.1.2 1.8.2zM108.1 24.4c-2.3 0-4.2-.7-5.5-2-1.4-1.3-2-3.1-2-5.2 0-1 .2-1.9.5-2.8.3-.9.8-1.7 1.4-2.3.6-.7 1.3-1.2 2.3-1.6.9-.4 1.9-.6 3-.6s2.1.2 2.9.6c.8.4 1.5.9 2 1.6.5.7.8 1.4 1.1 2.3.2.8.3 1.8.3 2.8 0 .3 0 .5-.1.6h-9.8c.1 1.4.5 2.4 1.2 3 .8.7 1.8 1 3.1 1 1.5 0 3-.5 4.4-1.5l.9 2.4c-.9.6-1.8 1.1-2.7 1.3-.9.2-1.9.4-3 .4zm-3.9-9h6.9c-.2-1-.5-1.7-1.1-2.3-.6-.5-1.3-.8-2.1-.8-1 0-1.8.3-2.4.8-.7.6-1.1 1.4-1.3 2.3zM117.6 24V13.7c0-.5 0-1.1-.1-1.7 0-.6-.1-1-.1-1.4l-.1-.5h3.6V12c.6-.7 1.1-1.3 1.6-1.6.5-.4 1.2-.5 1.9-.5.4 0 .9.1 1.4.2V13c-.6-.2-1.2-.3-1.7-.3-.9 0-1.7.3-2.3.9-.6.6-.9 1.5-.9 2.6V24h-3.3z"/><path class="st0" d="M137.3 24.3c-1.3 0-2.5-.2-3.7-.7-1.2-.4-2.2-1.1-3.1-1.9-.9-.8-1.7-1.9-2.2-3.2-.5-1.3-.8-2.8-.8-4.4 0-1.3.2-2.6.5-3.7.4-1.1.9-2.1 1.5-2.9.6-.8 1.3-1.5 2.2-2 .8-.6 1.7-1 2.6-1.2.9-.3 1.8-.4 2.8-.4 2.6 0 4.8.7 6.6 2.1l-1.3 2.4c-1.5-1-3.2-1.6-5-1.6-.8 0-1.6.2-2.4.5-.8.3-1.4.8-2 1.4-.6.6-1 1.4-1.4 2.3-.3.9-.5 1.9-.5 3 0 2.2.6 3.9 1.8 5.2 1.2 1.3 2.8 2 4.7 2 2 0 3.8-.7 5.5-2l1.2 2.7c-2 1.7-4.3 2.4-7 2.4zM152.2 24.4c-1.1 0-2.1-.2-3-.6-.9-.4-1.6-.9-2.2-1.6-.5-.7-1-1.4-1.2-2.3-.3-.8-.4-1.7-.4-2.6 0-1 .1-1.9.4-2.8.3-.9.7-1.7 1.3-2.4.6-.7 1.3-1.3 2.2-1.7.9-.4 1.9-.6 3.1-.6 1.7 0 3 .6 3.9 1.8v-1.5h3.3V24h-3.4v-1.9c-1.1 1.5-2.4 2.3-4 2.3zm.4-2.8c1.3 0 2.2-.4 2.8-1.2.6-.8.9-1.9.9-3.3s-.3-2.5-.9-3.4c-.6-.8-1.6-1.2-2.9-1.2-1.2 0-2.2.4-2.9 1.2-.7.8-1 1.9-1 3.3s.3 2.5 1 3.3c.7.9 1.7 1.3 3 1.3zM163.3 24V4.3h3.3V24h-3.3zM170.4 24V4.3h3.3V24h-3.3z"/><path class="st5" d="M41.2 14.6l-8.7 4.3L0 0z"/><path class="st6" d="M32.5 18.9l-3.4 9.4-1.1-7L0 0z"/><path class="st5" d="M28 21.3l-13.1 5.8L0 0z"/><path class="st0" d="M48.4 47c-.7 0-1.4-.2-2.1-.4l.2-.5c.6.2 1.3.3 1.9.4v.5zm1.4-.1l-.1-.5c.7-.1 1.3-.3 1.8-.7l.3.4c-.6.4-1.3.7-2 .8zm-4.7-.9c-.7-.4-1.2-.8-1.6-1.3l.4-.3c.4.4.9.9 1.5 1.2l-.3.4zm7.7-.8l-.4-.3c.4-.5.7-1 .9-1.7l.5.2c-.2.7-.5 1.3-1 1.8zm-10.1-1.7c-.1-.3-.1-.6-.1-.8 0-.2 0-.4.1-.7.1-.2.1-.4.2-.6l.5.1c-.1.2-.1.4-.2.6 0 .2-.1.4-.1.5 0 .2 0 .5.1.7l-.5.2zM53.6 42c0-.6-.2-1.1-.7-1.6l.3-.4c.6.6.9 1.2.9 1.9l-.5.1zm-9.9-1.8l-.4-.2c.3-.7.6-1.3.9-1.9l.4.3-.9 1.8zm8.1-.6c-.5-.3-1.1-.5-1.8-.8l.2-.5c.8.3 1.4.5 1.9.8l-.3.5zm-3.1-1.1c-.6-.2-1.3-.3-2-.5l.1-.5c.7.2 1.4.3 2 .5l-.1.5zm-3.3-.8l-.2-.1c-.6-.1-1.1-.3-1.7-.4l.1-.5 1.5.3h-.2c.4-.6.9-1.1 1.4-1.5l.3.4c-.4.4-.9.8-1.2 1.3h.1l-.1.5zm-3.3-.8c-.7-.2-1.3-.3-2-.5l.1-.5c.6.2 1.3.4 1.9.5v.5zm26.7-.4c-.6-.3-1.2-.6-1.8-.8l.2-.5c.6.3 1.2.5 1.9.8l-.3.5zm-30-.5c-.7-.2-1.3-.5-1.9-.7l.2-.5c.6.2 1.2.5 1.9.7l-.2.5zm26.9-.9c-.6-.2-1.3-.5-1.9-.7l.2-.5c.6.2 1.3.4 1.9.7l-.2.5zm-18 0l-.3-.4c.6-.4 1.2-.7 1.8-1l.2.5c-.6.2-1.2.5-1.7.9zm-12-.5c-.6-.3-1.2-.7-1.8-1.1l.3-.4c.5.4 1.1.7 1.7 1l-.2.5zm26.8-.6c-.7-.2-1.3-.4-1.9-.5l.1-.5c.6.1 1.3.3 2 .5l-.2.5zm-11.8-.4l-.2-.5c.6-.2 1.3-.4 2-.5l.1.5c-.7.2-1.3.3-1.9.5zm8.5-.3c-.7-.1-1.3-.2-2-.3v-.5c.7.1 1.3.2 2 .3v.5zm-5.3-.3v-.5c.5 0 1-.1 1.5-.1h.6v.5h-.6c-.5 0-1 0-1.5.1zm-21.1-.3c-.5-.5-1-1-1.4-1.5l.4-.3c.4.5.8 1 1.3 1.4l-.3.4z"/></svg>